<svg xmlns="http://www.w3.org/2000/svg" xmlns:xlink="http://www.w3.org/1999/xlink" contentStyleType="text/css" data-diagram-type="CLASS" height="824px" preserveAspectRatio="none" style="width:1211px;height:824px;background:#FFFFFF;" version="1.1" viewBox="0 0 1211 824" width="1211px" zoomAndPan="magnify"><?plantuml 1.2026.3beta5?><defs/><g><g class="title" data-source-line="1"><text fill="#000000" font-family="sans-serif" font-size="14" font-weight="700" lengthAdjust="spacing" textLength="641.334" x="281.4807" y="22.9951">Diagrama de Entidades Persistentes - Sistema de Gesti&#243;n de Turnos e Incidentes</text></g><!--class Docente--><g class="entity" data-qualified-name="Docente" data-source-line="9" id="ent0002"><rect fill="#F1F1F1" height="145.7813" rx="6" ry="6" style="stroke:#181818;stroke-width:0.5;" width="175.1191" x="694.75" y="44.2969"/><ellipse cx="748.7437" cy="60.2969" fill="#ADD1B2" rx="11" ry="11" style="stroke:#181818;stroke-width:1;"/><path d="M751.7124,65.9375 Q751.1343,66.2344 750.4937,66.375 Q749.853,66.5313 749.1499,66.5313 Q746.6499,66.5313 745.3218,64.8906 Q744.0093,63.2344 744.0093,60.1094 Q744.0093,56.9844 745.3218,55.3281 Q746.6499,53.6719 749.1499,53.6719 Q749.853,53.6719 750.4937,53.8281 Q751.1499,53.9844 751.7124,54.2813 L751.7124,57 Q751.0874,56.4219 750.4937,56.1563 Q749.8999,55.875 749.2749,55.875 Q747.9312,55.875 747.2437,56.9531 Q746.5562,58.0156 746.5562,60.1094 Q746.5562,62.2031 747.2437,63.2813 Q747.9312,64.3438 749.2749,64.3438 Q749.8999,64.3438 750.4937,64.0781 Q751.0874,63.7969 751.7124,63.2188 L751.7124,65.9375 Z " fill="#000000"/><text fill="#000000" font-family="sans-serif" font-size="14" lengthAdjust="spacing" textLength="58.6318" x="769.2437" y="65.1436">Docente</text><line style="stroke:#181818;stroke-width:0.5;" x1="695.75" x2="868.8691" y1="76.2969" y2="76.2969"/><text fill="#000000" font-family="sans-serif" font-size="14" lengthAdjust="spacing" textLength="72.249" x="700.75" y="93.292">+id : Long</text><text fill="#000000" font-family="sans-serif" font-size="14" lengthAdjust="spacing" textLength="121.4609" x="700.75" y="109.5889">+nombre : String</text><text fill="#000000" font-family="sans-serif" font-size="14" lengthAdjust="spacing" textLength="122.3291" x="700.75" y="125.8857">+apellido : String</text><text fill="#000000" font-family="sans-serif" font-size="14" lengthAdjust="spacing" textLength="112.082" x="700.75" y="142.1826">+correo : String</text><text fill="#000000" font-family="sans-serif" font-size="14" lengthAdjust="spacing" textLength="124.5439" x="700.75" y="158.4795">+activo : Boolean</text><text fill="#000000" font-family="sans-serif" font-size="14" lengthAdjust="spacing" textLength="163.1191" x="700.75" y="174.7764">+cargaTurnos : Integer</text><line style="stroke:#181818;stroke-width:0.5;" x1="695.75" x2="868.8691" y1="182.0781" y2="182.0781"/></g><!--class Zona--><g class="entity" data-qualified-name="Zona" data-source-line="18" id="ent0003"><rect fill="#F1F1F1" height="129.4844" rx="6" ry="6" style="stroke:#181818;stroke-width:0.5;" width="159.1777" x="170.72" y="52.4469"/><ellipse cx="228.2547" cy="68.4469" fill="#ADD1B2" rx="11" ry="11" style="stroke:#181818;stroke-width:1;"/><path d="M231.2234,74.0875 Q230.6453,74.3844 230.0047,74.525 Q229.364,74.6812 228.6609,74.6812 Q226.1609,74.6812 224.8328,73.0406 Q223.5203,71.3844 223.5203,68.2594 Q223.5203,65.1344 224.8328,63.4781 Q226.1609,61.8219 228.6609,61.8219 Q229.364,61.8219 230.0047,61.9781 Q230.6609,62.1344 231.2234,62.4312 L231.2234,65.15 Q230.5984,64.5719 230.0047,64.3062 Q229.4109,64.025 228.7859,64.025 Q227.4422,64.025 226.7547,65.1031 Q226.0672,66.1656 226.0672,68.2594 Q226.0672,70.3531 226.7547,71.4312 Q227.4422,72.4937 228.7859,72.4937 Q229.4109,72.4937 230.0047,72.2281 Q230.5984,71.9469 231.2234,71.3687 L231.2234,74.0875 Z " fill="#000000"/><text fill="#000000" font-family="sans-serif" font-size="14" lengthAdjust="spacing" textLength="35.6084" x="248.7547" y="73.2936">Zona</text><line style="stroke:#181818;stroke-width:0.5;" x1="171.72" x2="328.8977" y1="84.4469" y2="84.4469"/><text fill="#000000" font-family="sans-serif" font-size="14" lengthAdjust="spacing" textLength="72.249" x="176.72" y="101.442">+id : Long</text><text fill="#000000" font-family="sans-serif" font-size="14" lengthAdjust="spacing" textLength="121.4609" x="176.72" y="117.7389">+nombre : String</text><text fill="#000000" font-family="sans-serif" font-size="14" lengthAdjust="spacing" textLength="147.1777" x="176.72" y="134.0357">+descripcion : String</text><text fill="#000000" font-family="sans-serif" font-size="14" lengthAdjust="spacing" textLength="114.8438" x="176.72" y="150.3326">+bloque : String</text><text fill="#000000" font-family="sans-serif" font-size="14" lengthAdjust="spacing" textLength="124.5576" x="176.72" y="166.6295">+activa : Boolean</text><line style="stroke:#181818;stroke-width:0.5;" x1="171.72" x2="328.8977" y1="173.9312" y2="173.9312"/></g><!--class Turno--><g class="entity" data-qualified-name="Turno" data-source-line="26" id="ent0004"><rect fill="#F1F1F1" height="129.4844" rx="6" ry="6" style="stroke:#181818;stroke-width:0.5;" width="177.3887" x="350.61" y="267.0769"/><ellipse cx="414.7448" cy="283.0769" fill="#ADD1B2" rx="11" ry="11" style="stroke:#181818;stroke-width:1;"/><path d="M417.7135,288.7175 Q417.1354,289.0144 416.4948,289.155 Q415.8541,289.3113 415.151,289.3113 Q412.651,289.3113 411.3229,287.6706 Q410.0104,286.0144 410.0104,282.8894 Q410.0104,279.7644 411.3229,278.1081 Q412.651,276.4519 415.151,276.4519 Q415.8541,276.4519 416.4948,276.6081 Q417.151,276.7644 417.7135,277.0613 L417.7135,279.78 Q417.0885,279.2019 416.4948,278.9363 Q415.901,278.655 415.276,278.655 Q413.9323,278.655 413.2448,279.7331 Q412.5573,280.7956 412.5573,282.8894 Q412.5573,284.9831 413.2448,286.0613 Q413.9323,287.1238 415.276,287.1238 Q415.901,287.1238 416.4948,286.8581 Q417.0885,286.5769 417.7135,285.9988 L417.7135,288.7175 Z " fill="#000000"/><text fill="#000000" font-family="sans-serif" font-size="14" lengthAdjust="spacing" textLength="40.6191" x="435.2448" y="287.9236">Turno</text><line style="stroke:#181818;stroke-width:0.5;" x1="351.61" x2="526.9987" y1="299.0769" y2="299.0769"/><text fill="#000000" font-family="sans-serif" font-size="14" lengthAdjust="spacing" textLength="72.249" x="356.61" y="316.072">+id : Long</text><text fill="#000000" font-family="sans-serif" font-size="14" lengthAdjust="spacing" textLength="134.0322" x="356.61" y="332.3689">+fecha : LocalDate</text><text fill="#000000" font-family="sans-serif" font-size="14" lengthAdjust="spacing" textLength="165.3887" x="356.61" y="348.6657">+horaInicio : LocalTime</text><text fill="#000000" font-family="sans-serif" font-size="14" lengthAdjust="spacing" textLength="149.1602" x="356.61" y="364.9626">+horaFin : LocalTime</text><text fill="#000000" font-family="sans-serif" font-size="14" lengthAdjust="spacing" textLength="161.0547" x="356.61" y="381.2595">+estado : EstadoTurno</text><line style="stroke:#181818;stroke-width:0.5;" x1="351.61" x2="526.9987" y1="388.5613" y2="388.5613"/></g><!--class Incidente--><g class="entity" data-qualified-name="Incidente" data-source-line="34" id="ent0005"><rect fill="#F1F1F1" height="129.4844" rx="6" ry="6" style="stroke:#181818;stroke-width:0.5;" width="241.6123" x="318.5" y="473.5569"/><ellipse cx="402.5239" cy="489.5569" fill="#ADD1B2" rx="11" ry="11" style="stroke:#181818;stroke-width:1;"/><path d="M405.4927,495.1975 Q404.9146,495.4944 404.2739,495.635 Q403.6333,495.7913 402.9302,495.7913 Q400.4302,495.7913 399.1021,494.1506 Q397.7896,492.4944 397.7896,489.3694 Q397.7896,486.2444 399.1021,484.5881 Q400.4302,482.9319 402.9302,482.9319 Q403.6333,482.9319 404.2739,483.0881 Q404.9302,483.2444 405.4927,483.5413 L405.4927,486.26 Q404.8677,485.6819 404.2739,485.4163 Q403.6802,485.135 403.0552,485.135 Q401.7114,485.135 401.0239,486.2131 Q400.3364,487.2756 400.3364,489.3694 Q400.3364,491.4631 401.0239,492.5413 Q401.7114,493.6038 403.0552,493.6038 Q403.6802,493.6038 404.2739,493.3381 Q404.8677,493.0569 405.4927,492.4788 L405.4927,495.1975 Z " fill="#000000"/><text fill="#000000" font-family="sans-serif" font-size="14" lengthAdjust="spacing" textLength="65.0645" x="423.0239" y="494.4036">Incidente</text><line style="stroke:#181818;stroke-width:0.5;" x1="319.5" x2="559.1123" y1="505.5569" y2="505.5569"/><text fill="#000000" font-family="sans-serif" font-size="14" lengthAdjust="spacing" textLength="72.249" x="324.5" y="522.552">+id : Long</text><text fill="#000000" font-family="sans-serif" font-size="14" lengthAdjust="spacing" textLength="202.1523" x="324.5" y="538.8489">+fechaHora : LocalDateTime</text><text fill="#000000" font-family="sans-serif" font-size="14" lengthAdjust="spacing" textLength="212.2012" x="324.5" y="555.1457">+tipoIncidente : TipoIncidente</text><text fill="#000000" font-family="sans-serif" font-size="14" lengthAdjust="spacing" textLength="229.6123" x="324.5" y="571.4426">+severidad : SeveridadIncidente</text><text fill="#000000" font-family="sans-serif" font-size="14" lengthAdjust="spacing" textLength="147.1777" x="324.5" y="587.7395">+descripcion : String</text><line style="stroke:#181818;stroke-width:0.5;" x1="319.5" x2="559.1123" y1="595.0413" y2="595.0413"/></g><!--class Notificacion--><g class="entity" data-qualified-name="Notificacion" data-source-line="42" id="ent0006"><rect fill="#F1F1F1" height="113.1875" rx="6" ry="6" style="stroke:#181818;stroke-width:0.5;" width="252.6113" x="7" y="481.7069"/><ellipse cx="87.7871" cy="497.7069" fill="#ADD1B2" rx="11" ry="11" style="stroke:#181818;stroke-width:1;"/><path d="M90.7559,503.3475 Q90.1777,503.6444 89.5371,503.785 Q88.8965,503.9412 88.1934,503.9412 Q85.6934,503.9412 84.3652,502.3006 Q83.0527,500.6444 83.0527,497.5194 Q83.0527,494.3944 84.3652,492.7381 Q85.6934,491.0819 88.1934,491.0819 Q88.8965,491.0819 89.5371,491.2381 Q90.1934,491.3944 90.7559,491.6912 L90.7559,494.41 Q90.1309,493.8319 89.5371,493.5662 Q88.9434,493.285 88.3184,493.285 Q86.9746,493.285 86.2871,494.3631 Q85.5996,495.4256 85.5996,497.5194 Q85.5996,499.6131 86.2871,500.6912 Q86.9746,501.7537 88.3184,501.7537 Q88.9434,501.7537 89.5371,501.4881 Q90.1309,501.2069 90.7559,500.6287 L90.7559,503.3475 Z " fill="#000000"/><text fill="#000000" font-family="sans-serif" font-size="14" lengthAdjust="spacing" textLength="82.5371" x="108.2871" y="502.5536">Notificacion</text><line style="stroke:#181818;stroke-width:0.5;" x1="8" x2="258.6113" y1="513.7069" y2="513.7069"/><text fill="#000000" font-family="sans-serif" font-size="14" lengthAdjust="spacing" textLength="72.249" x="13" y="530.702">+id : Long</text><text fill="#000000" font-family="sans-serif" font-size="14" lengthAdjust="spacing" textLength="126.6289" x="13" y="546.9989">+mensaje : String</text><text fill="#000000" font-family="sans-serif" font-size="14" lengthAdjust="spacing" textLength="240.6113" x="13" y="563.2957">+fechaHoraEnvio : LocalDateTime</text><text fill="#000000" font-family="sans-serif" font-size="14" lengthAdjust="spacing" textLength="164.6094" x="13" y="579.5926">+tipo : TipoNotificacion</text><line style="stroke:#181818;stroke-width:0.5;" x1="8" x2="258.6113" y1="586.8944" y2="586.8944"/></g><!--class Reemplazo--><g class="entity" data-qualified-name="Reemplazo" data-source-line="49" id="ent0007"><rect fill="#F1F1F1" height="113.1875" rx="6" ry="6" style="stroke:#181818;stroke-width:0.5;" width="240.792" x="859.91" y="481.7069"/><ellipse cx="937.1253" cy="497.7069" fill="#ADD1B2" rx="11" ry="11" style="stroke:#181818;stroke-width:1;"/><path d="M940.0941,503.3475 Q939.516,503.6444 938.8753,503.785 Q938.2347,503.9412 937.5316,503.9412 Q935.0316,503.9412 933.7035,502.3006 Q932.391,500.6444 932.391,497.5194 Q932.391,494.3944 933.7035,492.7381 Q935.0316,491.0819 937.5316,491.0819 Q938.2347,491.0819 938.8753,491.2381 Q939.5316,491.3944 940.0941,491.6912 L940.0941,494.41 Q939.4691,493.8319 938.8753,493.5662 Q938.2816,493.285 937.6566,493.285 Q936.3128,493.285 935.6253,494.3631 Q934.9378,495.4256 934.9378,497.5194 Q934.9378,499.6131 935.6253,500.6912 Q936.3128,501.7537 937.6566,501.7537 Q938.2816,501.7537 938.8753,501.4881 Q939.4691,501.2069 940.0941,500.6287 L940.0941,503.3475 Z " fill="#000000"/><text fill="#000000" font-family="sans-serif" font-size="14" lengthAdjust="spacing" textLength="77.8613" x="957.6253" y="502.5536">Reemplazo</text><line style="stroke:#181818;stroke-width:0.5;" x1="860.91" x2="1099.702" y1="513.7069" y2="513.7069"/><text fill="#000000" font-family="sans-serif" font-size="14" lengthAdjust="spacing" textLength="72.249" x="865.91" y="530.702">+id : Long</text><text fill="#000000" font-family="sans-serif" font-size="14" lengthAdjust="spacing" textLength="228.792" x="865.91" y="546.9989">+fechaSolicitud : LocalDateTime</text><text fill="#000000" font-family="sans-serif" font-size="14" lengthAdjust="spacing" textLength="115.5615" x="865.91" y="563.2957">+motivo : String</text><text fill="#000000" font-family="sans-serif" font-size="14" lengthAdjust="spacing" textLength="198.2969" x="865.91" y="579.5926">+estado : EstadoReemplazo</text><line style="stroke:#181818;stroke-width:0.5;" x1="860.91" x2="1099.702" y1="586.8944" y2="586.8944"/></g><!--class Usuario--><g class="entity" data-qualified-name="Usuario" data-source-line="56" id="ent0008"><rect fill="#F1F1F1" height="96.8906" rx="6" ry="6" style="stroke:#181818;stroke-width:0.5;" width="149.3682" x="562.62" y="283.3769"/><ellipse cx="606.4938" cy="299.3769" fill="#ADD1B2" rx="11" ry="11" style="stroke:#181818;stroke-width:1;"/><path d="M609.4626,305.0175 Q608.8845,305.3144 608.2438,305.455 Q607.6032,305.6112 606.9001,305.6112 Q604.4001,305.6112 603.072,303.9706 Q601.7595,302.3144 601.7595,299.1894 Q601.7595,296.0644 603.072,294.4081 Q604.4001,292.7519 606.9001,292.7519 Q607.6032,292.7519 608.2438,292.9081 Q608.9001,293.0644 609.4626,293.3612 L609.4626,296.08 Q608.8376,295.5019 608.2438,295.2362 Q607.6501,294.955 607.0251,294.955 Q605.6813,294.955 604.9938,296.0331 Q604.3063,297.0956 604.3063,299.1894 Q604.3063,301.2831 604.9938,302.3612 Q605.6813,303.4237 607.0251,303.4237 Q607.6501,303.4237 608.2438,303.1581 Q608.8376,302.8769 609.4626,302.2987 L609.4626,305.0175 Z " fill="#000000"/><text fill="#000000" font-family="sans-serif" font-size="14" lengthAdjust="spacing" textLength="53.2041" x="626.9102" y="304.2236">Usuario</text><line style="stroke:#181818;stroke-width:0.5;" x1="563.62" x2="710.9882" y1="315.3769" y2="315.3769"/><text fill="#000000" font-family="sans-serif" font-size="14" lengthAdjust="spacing" textLength="72.249" x="568.62" y="332.372">+id : Long</text><text fill="#000000" font-family="sans-serif" font-size="14" lengthAdjust="spacing" textLength="137.3682" x="568.62" y="348.6689">+username : String</text><text fill="#000000" font-family="sans-serif" font-size="14" lengthAdjust="spacing" textLength="133.8408" x="568.62" y="364.9657">+password : String</text><line style="stroke:#181818;stroke-width:0.5;" x1="563.62" x2="710.9882" y1="372.2675" y2="372.2675"/></g><!--class Rol--><g class="entity" data-qualified-name="Rol" data-source-line="62" id="ent0009"><rect fill="#F1F1F1" height="80.5938" rx="6" ry="6" style="stroke:#181818;stroke-width:0.5;" width="133.4609" x="461.58" y="76.8869"/><ellipse cx="512.9692" cy="92.8869" fill="#ADD1B2" rx="11" ry="11" style="stroke:#181818;stroke-width:1;"/><path d="M515.9379,98.5275 Q515.3598,98.8244 514.7192,98.965 Q514.0785,99.1212 513.3754,99.1212 Q510.8754,99.1212 509.5473,97.4806 Q508.2348,95.8244 508.2348,92.6994 Q508.2348,89.5744 509.5473,87.9181 Q510.8754,86.2619 513.3754,86.2619 Q514.0785,86.2619 514.7192,86.4181 Q515.3754,86.5744 515.9379,86.8712 L515.9379,89.59 Q515.3129,89.0119 514.7192,88.7462 Q514.1254,88.465 513.5004,88.465 Q512.1567,88.465 511.4692,89.5431 Q510.7817,90.6056 510.7817,92.6994 Q510.7817,94.7931 511.4692,95.8712 Q512.1567,96.9337 513.5004,96.9337 Q514.1254,96.9337 514.7192,96.6681 Q515.3129,96.3869 515.9379,95.8087 L515.9379,98.5275 Z " fill="#000000"/><text fill="#000000" font-family="sans-serif" font-size="14" lengthAdjust="spacing" textLength="22.1826" x="533.4692" y="97.7336">Rol</text><line style="stroke:#181818;stroke-width:0.5;" x1="462.58" x2="594.0409" y1="108.8869" y2="108.8869"/><text fill="#000000" font-family="sans-serif" font-size="14" lengthAdjust="spacing" textLength="72.249" x="467.58" y="125.882">+id : Long</text><text fill="#000000" font-family="sans-serif" font-size="14" lengthAdjust="spacing" textLength="121.4609" x="467.58" y="142.1789">+nombre : String</text><line style="stroke:#181818;stroke-width:0.5;" x1="462.58" x2="594.0409" y1="149.4806" y2="149.4806"/></g><!--class EstadoTurno--><g class="entity" data-qualified-name="EstadoTurno" data-source-line="67" id="ent0010"><rect fill="#F1F1F1" height="113.1875" rx="6" ry="6" style="stroke:#181818;stroke-width:0.5;" width="120.2793" x="704.17" y="481.7069"/><ellipse cx="719.17" cy="497.7069" fill="#EB937F" rx="11" ry="11" style="stroke:#181818;stroke-width:1;"/><path d="M723.2794,503.7069 L715.5606,503.7069 L715.5606,491.3162 L723.2794,491.3162 L723.2794,493.4725 L718.0138,493.4725 L718.0138,496.1444 L722.7794,496.1444 L722.7794,498.3006 L718.0138,498.3006 L718.0138,501.5506 L723.2794,501.5506 L723.2794,503.7069 Z " fill="#000000"/><text fill="#000000" font-family="sans-serif" font-size="14" lengthAdjust="spacing" textLength="88.2793" x="733.17" y="502.5536">EstadoTurno</text><line style="stroke:#181818;stroke-width:0.5;" x1="705.17" x2="823.4493" y1="513.7069" y2="513.7069"/><text fill="#000000" font-family="sans-serif" font-size="14" lengthAdjust="spacing" textLength="102.7988" x="710.17" y="530.702">PROGRAMADO</text><text fill="#000000" font-family="sans-serif" font-size="14" lengthAdjust="spacing" textLength="79.3857" x="710.17" y="546.9989">PENDIENTE</text><text fill="#000000" font-family="sans-serif" font-size="14" lengthAdjust="spacing" textLength="71.9004" x="710.17" y="563.2957">CUBIERTO</text><text fill="#000000" font-family="sans-serif" font-size="14" lengthAdjust="spacing" textLength="87.623" x="710.17" y="579.5926">CANCELADO</text><line style="stroke:#181818;stroke-width:0.5;" x1="705.17" x2="823.4493" y1="586.8944" y2="586.8944"/></g><!--class TipoIncidente--><g class="entity" data-qualified-name="TipoIncidente" data-source-line="74" id="ent0011"><rect fill="#F1F1F1" height="145.7813" rx="6" ry="6" style="stroke:#181818;stroke-width:0.5;" width="167.333" x="320.64" y="664.0469"/><ellipse cx="353.8088" cy="680.0469" fill="#EB937F" rx="11" ry="11" style="stroke:#181818;stroke-width:1;"/><path d="M357.9181,686.0469 L350.1994,686.0469 L350.1994,673.6563 L357.9181,673.6563 L357.9181,675.8125 L352.6525,675.8125 L352.6525,678.4844 L357.4181,678.4844 L357.4181,680.6406 L352.6525,680.6406 L352.6525,683.8906 L357.9181,683.8906 L357.9181,686.0469 Z " fill="#000000"/><text fill="#000000" font-family="sans-serif" font-size="14" lengthAdjust="spacing" textLength="94.958" x="371.8463" y="684.8936">TipoIncidente</text><line style="stroke:#181818;stroke-width:0.5;" x1="321.64" x2="486.973" y1="696.0469" y2="696.0469"/><text fill="#000000" font-family="sans-serif" font-size="14" lengthAdjust="spacing" textLength="83.8223" x="326.64" y="713.042">SEGURIDAD</text><text fill="#000000" font-family="sans-serif" font-size="14" lengthAdjust="spacing" textLength="136.0967" x="326.64" y="729.3389">INFRAESTRUCTURA</text><text fill="#000000" font-family="sans-serif" font-size="14" lengthAdjust="spacing" textLength="80.7529" x="326.64" y="745.6357">ACCIDENTE</text><text fill="#000000" font-family="sans-serif" font-size="14" lengthAdjust="spacing" textLength="155.333" x="326.64" y="761.9326">EMERGENCIA_MEDICA</text><text fill="#000000" font-family="sans-serif" font-size="14" lengthAdjust="spacing" textLength="110.9336" x="326.64" y="778.2295">FALLA_TECNICA</text><text fill="#000000" font-family="sans-serif" font-size="14" lengthAdjust="spacing" textLength="40.3184" x="326.64" y="794.5264">OTRO</text><line style="stroke:#181818;stroke-width:0.5;" x1="321.64" x2="486.973" y1="801.8281" y2="801.8281"/></g><!--class SeveridadIncidente--><g class="entity" data-qualified-name="SeveridadIncidente" data-source-line="83" id="ent0012"><rect fill="#F1F1F1" height="113.1875" rx="6" ry="6" style="stroke:#181818;stroke-width:0.5;" width="167.4609" x="522.58" y="680.3469"/><ellipse cx="537.58" cy="696.3469" fill="#EB937F" rx="11" ry="11" style="stroke:#181818;stroke-width:1;"/><path d="M541.6894,702.3469 L533.9706,702.3469 L533.9706,689.9563 L541.6894,689.9563 L541.6894,692.1125 L536.4238,692.1125 L536.4238,694.7844 L541.1894,694.7844 L541.1894,696.9406 L536.4238,696.9406 L536.4238,700.1906 L541.6894,700.1906 L541.6894,702.3469 Z " fill="#000000"/><text fill="#000000" font-family="sans-serif" font-size="14" lengthAdjust="spacing" textLength="135.4609" x="551.58" y="701.1936">SeveridadIncidente</text><line style="stroke:#181818;stroke-width:0.5;" x1="523.58" x2="689.0409" y1="712.3469" y2="712.3469"/><text fill="#000000" font-family="sans-serif" font-size="14" lengthAdjust="spacing" textLength="32.8877" x="528.58" y="729.342">BAJA</text><text fill="#000000" font-family="sans-serif" font-size="14" lengthAdjust="spacing" textLength="45.4111" x="528.58" y="745.6389">MEDIA</text><text fill="#000000" font-family="sans-serif" font-size="14" lengthAdjust="spacing" textLength="35.5059" x="528.58" y="761.9357">ALTA</text><text fill="#000000" font-family="sans-serif" font-size="14" lengthAdjust="spacing" textLength="55.665" x="528.58" y="778.2326">CRITICA</text><line style="stroke:#181818;stroke-width:0.5;" x1="523.58" x2="689.0409" y1="785.5344" y2="785.5344"/></g><!--class EstadoReemplazo--><g class="entity" data-qualified-name="EstadoReemplazo" data-source-line="90" id="ent0013"><rect fill="#F1F1F1" height="113.1875" rx="6" ry="6" style="stroke:#181818;stroke-width:0.5;" width="157.5215" x="901.54" y="680.3469"/><ellipse cx="916.54" cy="696.3469" fill="#EB937F" rx="11" ry="11" style="stroke:#181818;stroke-width:1;"/><path d="M920.6494,702.3469 L912.9306,702.3469 L912.9306,689.9563 L920.6494,689.9563 L920.6494,692.1125 L915.3838,692.1125 L915.3838,694.7844 L920.1494,694.7844 L920.1494,696.9406 L915.3838,696.9406 L915.3838,700.1906 L920.6494,700.1906 L920.6494,702.3469 Z " fill="#000000"/><text fill="#000000" font-family="sans-serif" font-size="14" lengthAdjust="spacing" textLength="125.5215" x="930.54" y="701.1936">EstadoReemplazo</text><line style="stroke:#181818;stroke-width:0.5;" x1="902.54" x2="1058.0615" y1="712.3469" y2="712.3469"/><text fill="#000000" font-family="sans-serif" font-size="14" lengthAdjust="spacing" textLength="85.668" x="907.54" y="729.342">SOLICITADO</text><text fill="#000000" font-family="sans-serif" font-size="14" lengthAdjust="spacing" textLength="79.748" x="907.54" y="745.6389">APROBADO</text><text fill="#000000" font-family="sans-serif" font-size="14" lengthAdjust="spacing" textLength="89.4209" x="907.54" y="761.9357">RECHAZADO</text><text fill="#000000" font-family="sans-serif" font-size="14" lengthAdjust="spacing" textLength="97.8906" x="907.54" y="778.2326">COMPLETADO</text><line style="stroke:#181818;stroke-width:0.5;" x1="902.54" x2="1058.0615" y1="785.5344" y2="785.5344"/></g><!--class TipoNotificacion--><g class="entity" data-qualified-name="TipoNotificacion" data-source-line="97" id="ent0014"><rect fill="#F1F1F1" height="129.4844" rx="6" ry="6" style="stroke:#181818;stroke-width:0.5;" width="187.0957" x="39.76" y="672.1969"/><ellipse cx="73.9593" cy="688.1969" fill="#EB937F" rx="11" ry="11" style="stroke:#181818;stroke-width:1;"/><path d="M78.0686,694.1969 L70.3499,694.1969 L70.3499,681.8063 L78.0686,681.8063 L78.0686,683.9625 L72.803,683.9625 L72.803,686.6344 L77.5686,686.6344 L77.5686,688.7906 L72.803,688.7906 L72.803,692.0406 L78.0686,692.0406 L78.0686,694.1969 Z " fill="#000000"/><text fill="#000000" font-family="sans-serif" font-size="14" lengthAdjust="spacing" textLength="112.4307" x="92.2258" y="693.0436">TipoNotificacion</text><line style="stroke:#181818;stroke-width:0.5;" x1="40.76" x2="225.8557" y1="704.1969" y2="704.1969"/><text fill="#000000" font-family="sans-serif" font-size="14" lengthAdjust="spacing" textLength="175.0957" x="45.76" y="721.192">INCIDENTE_REGISTRADO</text><text fill="#000000" font-family="sans-serif" font-size="14" lengthAdjust="spacing" textLength="113.2031" x="45.76" y="737.4889">CAMBIO_TURNO</text><text fill="#000000" font-family="sans-serif" font-size="14" lengthAdjust="spacing" textLength="168.2461" x="45.76" y="753.7857">SOLICITUD_REEMPLAZO</text><text fill="#000000" font-family="sans-serif" font-size="14" lengthAdjust="spacing" textLength="172.6758" x="45.76" y="770.0826">REEMPLAZO_APROBADO</text><text fill="#000000" font-family="sans-serif" font-size="14" lengthAdjust="spacing" textLength="101.7393" x="45.76" y="786.3795">ALERTA_ZONA</text><line style="stroke:#181818;stroke-width:0.5;" x1="40.76" x2="225.8557" y1="793.6813" y2="793.6813"/></g><!--link Docente to Turno--><g class="link" data-entity-1="ent0002" data-entity-2="ent0004" data-link-type="association" data-source-line="105" id="lnk15"><path codeLine="105" d="M694.42,172.6669 C643.51,204.2269 579.58,243.8569 528.45,275.5569" fill="none" id="Docente-Turno" style="stroke:#181818;stroke-width:1;"/><polygon fill="#000000" points="611.0604,231.2778,620.2965,229.0098,617.1995,224.0141,611.0604,231.2778" style="stroke:#000000;stroke-width:1;"/><text fill="#000000" font-family="sans-serif" font-size="13" lengthAdjust="spacing" textLength="32.9443" x="624.31" y="233.1438">tiene</text><text fill="#000000" font-family="sans-serif" font-size="13" lengthAdjust="spacing" textLength="8.271" x="678.5349" y="173.8627">1</text><text fill="#000000" font-family="sans-serif" font-size="13" lengthAdjust="spacing" textLength="23.0356" x="535.8425" y="267.9461">0..*</text></g><!--link Zona to Turno--><g class="link" data-entity-1="ent0003" data-entity-2="ent0004" data-link-type="association" data-source-line="106" id="lnk16"><path codeLine="106" d="M307.27,182.2669 C331.07,209.0469 358.67,240.0969 382.46,266.8669" fill="none" id="Zona-Turno" style="stroke:#181818;stroke-width:1;"/><polygon fill="#000000" points="359.6316,232.3805,355.8195,223.6674,351.4261,227.5721,359.6316,232.3805" style="stroke:#000000;stroke-width:1;"/><text fill="#000000" font-family="sans-serif" font-size="13" lengthAdjust="spacing" textLength="36.9814" x="365.31" y="233.1438">cubre</text><text fill="#000000" font-family="sans-serif" font-size="13" lengthAdjust="spacing" textLength="8.271" x="304.7456" y="201.8252">1</text><text fill="#000000" font-family="sans-serif" font-size="13" lengthAdjust="spacing" textLength="23.0356" x="351.9868" y="256.0166">0..*</text></g><!--link Zona to Incidente--><g class="link" data-entity-1="ent0003" data-entity-2="ent0005" data-link-type="association" data-source-line="108" id="lnk17"><path codeLine="108" d="M237.54,182.2069 C227.23,252.2169 221.65,364.8969 272.31,443.5569 C283.92,461.5869 300.28,476.4869 318.26,488.6869" fill="none" id="Zona-Incidente" style="stroke:#181818;stroke-width:1;"/><polygon fill="#000000" points="255.5835,336.7184,256.1218,327.2231,250.4377,328.7201,255.5835,336.7184" style="stroke:#000000;stroke-width:1;"/><text fill="#000000" font-family="sans-serif" font-size="13" lengthAdjust="spacing" textLength="50.3877" x="263.31" y="336.3838">registra</text><text fill="#000000" font-family="sans-serif" font-size="13" lengthAdjust="spacing" textLength="8.271" x="227.7207" y="202.2127">1</text><text fill="#000000" font-family="sans-serif" font-size="13" lengthAdjust="spacing" textLength="23.0356" x="287.5982" y="482.4558">0..*</text></g><!--link Turno to Incidente--><g class="link" data-entity-1="ent0004" data-entity-2="ent0005" data-link-type="association" data-source-line="109" id="lnk18"><path codeLine="109" d="M439.31,396.9569 C439.31,421.3169 439.31,449.0469 439.31,473.3969" fill="none" id="Turno-Incidente" style="stroke:#181818;stroke-width:1;"/><polygon fill="#000000" points="444.31,440.1233,447.2489,431.0782,441.3711,431.0782,444.31,440.1233" style="stroke:#000000;stroke-width:1;"/><text fill="#000000" font-family="sans-serif" font-size="13" lengthAdjust="spacing" textLength="62.3975" x="453.31" y="439.6238">ocurre en</text><text fill="#000000" font-family="sans-serif" font-size="13" lengthAdjust="spacing" textLength="8.271" x="430.9121" y="416.5214">1</text><text fill="#000000" font-family="sans-serif" font-size="13" lengthAdjust="spacing" textLength="23.0356" x="415.0546" y="462.552">0..*</text></g><!--link Docente to Incidente--><g class="link" data-entity-1="ent0002" data-entity-2="ent0005" data-link-type="association" data-source-line="110" id="lnk19"><path codeLine="110" d="M785.72,190.5369 C784.89,251.3969 774.59,337.6669 729.31,396.5569 C687.69,450.6869 619.88,485.1869 560.29,506.4769" fill="none" id="Docente-Incidente" style="stroke:#181818;stroke-width:1;"/><polygon fill="#000000" points="781.4059,335.9534,789.0519,330.2975,784.2671,326.8835,781.4059,335.9534" style="stroke:#000000;stroke-width:1;"/><text fill="#000000" font-family="sans-serif" font-size="13" lengthAdjust="spacing" textLength="47.9565" x="793.31" y="336.3838">reporta</text><text fill="#000000" font-family="sans-serif" font-size="13" lengthAdjust="spacing" textLength="8.271" x="777.6781" y="210.0632">1</text><text fill="#000000" font-family="sans-serif" font-size="13" lengthAdjust="spacing" textLength="23.0356" x="567.9503" y="501.2743">0..*</text></g><!--link Turno to Notificacion--><g class="link" data-entity-1="ent0004" data-entity-2="ent0006" data-link-type="association" data-source-line="112" id="lnk20"><path codeLine="112" d="M350.39,392.2369 C308.39,420.3069 258.53,453.6269 217.19,481.2469" fill="none" id="Turno-Notificacion" style="stroke:#181818;stroke-width:1;"/><polygon fill="#000000" points="297.1528,437.9013,306.3062,435.3194,303.0404,430.4322,297.1528,437.9013" style="stroke:#000000;stroke-width:1;"/><text fill="#000000" font-family="sans-serif" font-size="13" lengthAdjust="spacing" textLength="45.7983" x="310.31" y="439.6238">genera</text><text fill="#000000" font-family="sans-serif" font-size="13" lengthAdjust="spacing" textLength="8.271" x="334.4168" y="393.8571">1</text><text fill="#000000" font-family="sans-serif" font-size="13" lengthAdjust="spacing" textLength="23.0356" x="203.014" y="470.4544">0..*</text></g><!--link Zona to Notificacion--><g class="link" data-entity-1="ent0003" data-entity-2="ent0006" data-link-type="association" data-source-line="113" id="lnk21"><path codeLine="113" d="M186.12,182.2769 C165.85,206.7369 145.97,236.2069 135.31,267.0769 C110.88,337.8069 116.11,425.2969 123.53,481.2069" fill="none" id="Zona-Notificacion" style="stroke:#181818;stroke-width:1;"/><polygon fill="#000000" points="139.2853,336.7772,144.0155,328.5263,138.2624,327.3218,139.2853,336.7772" style="stroke:#000000;stroke-width:1;"/><text fill="#000000" font-family="sans-serif" font-size="13" lengthAdjust="spacing" textLength="57.6367" x="149.31" y="336.3838">asociada</text><text fill="#000000" font-family="sans-serif" font-size="13" lengthAdjust="spacing" textLength="8.271" x="171.102" y="201.8362">1</text><text fill="#000000" font-family="sans-serif" font-size="13" lengthAdjust="spacing" textLength="23.0356" x="98.0721" y="470.8128">0..*</text></g><!--link Turno to Reemplazo--><g class="link" data-entity-1="ent0004" data-entity-2="ent0007" data-link-type="association" data-source-line="115" id="lnk22"><path codeLine="115" d="M528.29,388.7569 C533.96,391.5569 539.66,394.1869 545.31,396.5569 C671.04,449.3569 713.89,427.6769 842.31,473.5569 C849.02,475.9569 855.85,478.5569 862.69,481.2969" fill="none" id="Turno-Reemplazo" style="stroke:#181818;stroke-width:1;"/><polygon fill="#000000" points="733.1289,436.4568,725.1953,431.2119,723.6276,436.8769,733.1289,436.4568" style="stroke:#000000;stroke-width:1;"/><text fill="#000000" font-family="sans-serif" font-size="13" lengthAdjust="spacing" textLength="54.7866" x="737.31" y="439.6238">requiere</text><text fill="#000000" font-family="sans-serif" font-size="13" lengthAdjust="spacing" textLength="8.271" x="536.0016" y="389.9233">1</text><text fill="#000000" font-family="sans-serif" font-size="13" lengthAdjust="spacing" textLength="23.0356" x="831.4996" y="470.7381">0..*</text></g><!--link Docente to Reemplazo--><g class="link" data-entity-1="ent0002" data-entity-2="ent0007" data-link-type="association" data-source-line="116" id="lnk23"><path codeLine="116" d="M816.34,190.2369 C855.32,272.7369 918.34,406.1469 953.83,481.2669" fill="none" id="Docente-Reemplazo" style="stroke:#181818;stroke-width:1;"/><polygon fill="#000000" points="920.4458,336.4042,919.2394,326.9704,913.9248,329.4812,920.4458,336.4042" style="stroke:#000000;stroke-width:1;"/><text fill="#000000" font-family="sans-serif" font-size="13" lengthAdjust="spacing" textLength="103.5557" x="927.31" y="336.3838">docenteOriginal</text><text fill="#000000" font-family="sans-serif" font-size="13" lengthAdjust="spacing" textLength="8.271" x="811.3095" y="210.2394">1</text><text fill="#000000" font-family="sans-serif" font-size="13" lengthAdjust="spacing" textLength="23.0356" x="926.2038" y="470.4768">0..*</text></g><!--link Docente to Reemplazo--><g class="link" data-entity-1="ent0002" data-entity-2="ent0007" data-link-type="association" data-source-line="117" id="lnk24"><path codeLine="117" d="M870.27,143.5469 C929.51,165.7269 1003.19,204.4169 1039.31,267.0769 C1077.97,334.1669 1044.52,423.9469 1014.46,481.2269" fill="none" id="Docente-Reemplazo-1" style="stroke:#181818;stroke-width:1;"/><polygon fill="#000000" points="1063.2735,336.4816,1062.4243,327.009,1057.0187,329.3173,1063.2735,336.4816" style="stroke:#000000;stroke-width:1;"/><text fill="#000000" font-family="sans-serif" font-size="13" lengthAdjust="spacing" textLength="124.9854" x="1070.31" y="336.3838">docenteReemplazo</text><text fill="#000000" font-family="sans-serif" font-size="13" lengthAdjust="spacing" textLength="24.8066" x="877.9541" y="142.0628">0..1</text><text fill="#000000" font-family="sans-serif" font-size="13" lengthAdjust="spacing" textLength="23.0356" x="994.0814" y="470.8351">0..*</text></g><!--link Docente to Usuario--><g class="link" data-entity-1="ent0002" data-entity-2="ent0008" data-link-type="association" data-source-line="119" id="lnk25"><path codeLine="119" d="M729.86,190.5369 C722.88,200.4169 715.87,210.4669 709.31,220.0769 C695.34,240.5269 680.34,263.4369 667.67,283.0869" fill="none" id="Docente-Usuario" style="stroke:#181818;stroke-width:1;"/><polygon fill="#000000" points="711.5213,232.7934,719.0055,226.9249,714.1267,223.6466,711.5213,232.7934" style="stroke:#000000;stroke-width:1;"/><text fill="#000000" font-family="sans-serif" font-size="13" lengthAdjust="spacing" textLength="32.9443" x="723.31" y="233.1438">tiene</text><text fill="#000000" font-family="sans-serif" font-size="13" lengthAdjust="spacing" textLength="8.271" x="716.6685" y="210.0632">1</text><text fill="#000000" font-family="sans-serif" font-size="13" lengthAdjust="spacing" textLength="24.8066" x="646.3094" y="272.255">0..1</text></g><!--link Rol to Usuario--><g class="link" data-entity-1="ent0009" data-entity-2="ent0008" data-link-type="association" data-source-line="120" id="lnk26"><path codeLine="120" d="M518.71,157.7369 C514.92,181.7769 513.82,212.4769 525.31,237.0769 C533.68,254.9969 547.34,270.6969 562.3,283.8669" fill="none" id="Rol-Usuario" style="stroke:#181818;stroke-width:1;"/><polygon fill="#000000" points="531.9432,233.369,531.7664,223.8601,526.211,225.78,531.9432,233.369" style="stroke:#000000;stroke-width:1;"/><text fill="#000000" font-family="sans-serif" font-size="13" lengthAdjust="spacing" textLength="42.8086" x="539.31" y="233.1438">asigna</text><text fill="#000000" font-family="sans-serif" font-size="13" lengthAdjust="spacing" textLength="8.271" x="508.564" y="177.4728">1</text><text fill="#000000" font-family="sans-serif" font-size="13" lengthAdjust="spacing" textLength="23.0356" x="531.5973" y="292.3366">0..*</text></g><!--link Turno to EstadoTurno--><g class="link" data-entity-1="ent0004" data-entity-2="ent0010" data-link-type="dependency" data-source-line="122" id="lnk27"><path codeLine="122" d="M528.11,388.6969 C583.93,423.8169 649.3915,465.0017 698.7915,496.0817" fill="none" id="Turno-to-EstadoTurno" style="stroke:#181818;stroke-width:1;"/><polygon fill="#181818" points="703.87,499.2769,698.3823,491.0985,699.6379,496.6143,694.1222,497.8698,703.87,499.2769" style="stroke:#181818;stroke-width:1;"/></g><!--link Incidente to TipoIncidente--><g class="link" data-entity-1="ent0005" data-entity-2="ent0011" data-link-type="dependency" data-source-line="123" id="lnk28"><path codeLine="123" d="M427.89,603.4169 C424.46,622.6969 421.7194,638.0694 418.2094,657.8294" fill="none" id="Incidente-to-TipoIncidente" style="stroke:#181818;stroke-width:1;"/><polygon fill="#181818" points="417.16,663.7369,422.6724,655.5752,418.0345,658.8139,414.7957,654.176,417.16,663.7369" style="stroke:#181818;stroke-width:1;"/></g><!--link Incidente to SeveridadIncidente--><g class="link" data-entity-1="ent0005" data-entity-2="ent0012" data-link-type="dependency" data-source-line="124" id="lnk29"><path codeLine="124" d="M493.76,603.4169 C514.7,628.0769 534.5357,651.4339 554.7857,675.2739" fill="none" id="Incidente-to-SeveridadIncidente" style="stroke:#181818;stroke-width:1;"/><polygon fill="#181818" points="558.67,679.8469,555.8921,670.3979,555.4331,676.0361,549.7949,675.577,558.67,679.8469" style="stroke:#181818;stroke-width:1;"/></g><!--link Reemplazo to EstadoReemplazo--><g class="link" data-entity-1="ent0007" data-entity-2="ent0013" data-link-type="dependency" data-source-line="125" id="lnk30"><path codeLine="125" d="M980.31,595.3869 C980.31,621.9469 980.31,647.5869 980.31,674.1169" fill="none" id="Reemplazo-to-EstadoReemplazo" style="stroke:#181818;stroke-width:1;"/><polygon fill="#181818" points="980.31,680.1169,984.31,671.1169,980.31,675.1169,976.31,671.1169,980.31,680.1169" style="stroke:#181818;stroke-width:1;"/></g><!--link Notificacion to TipoNotificacion--><g class="link" data-entity-1="ent0006" data-entity-2="ent0014" data-link-type="dependency" data-source-line="126" id="lnk31"><path codeLine="126" d="M133.31,595.3869 C133.31,619.2269 133.31,641.1569 133.31,665.8069" fill="none" id="Notificacion-to-TipoNotificacion" style="stroke:#181818;stroke-width:1;"/><polygon fill="#181818" points="133.31,671.8069,137.31,662.8069,133.31,666.8069,129.31,662.8069,133.31,671.8069" style="stroke:#181818;stroke-width:1;"/></g><?plantuml-src ZLN1Zfim4Btp5LQEhLBjzfX390UyMIe2Aq8kkKGEU8cxOBF6x4fRzQlw2VsnZaqI827gdZAUUJFpvdbmDDS5GnwdkQ8bHHb3H6YUqOpLw8cfcjUQ2Gs7ALeRkyKiMQtvtp_2s4cZXAmHGxv8UMR1ZgDbXRH4UwcrB5765KirbyAfNxYeABH2Uvg-v4es8dDb8HLwFt3DUl7wG3FvpaMEdcbHzoCsAPLAC8Nkl_S2QK7h6ckj-BxHp4-bMFCFXkuSnqQG9rD33_ro4FhACpH3WHIvEGXPxXK3nngIMnUjM57mJ0wSq5MneOl2O6_6jP2oO5HO65KvFUeo0rqqovboVfzuRAMWdoC1jv0gNgKWtS2_B-Hhmwvvq1wFSpjBPAJVCqiFr9vJMdWKr0VdGIhg2muTJv64b-V80nUNRjW4QbKYrh3DkjxddRZL_n6gzZcSocfUoIvvXfB-sG1gziQKMLIZmiaU84R5EpCBfURFFAKsV4skPAAcFuSIdmaJyTRfSydwIBPVl-iQCrPM1VsuUHzhMO3ukid6ofVok6iTfmlvp_MxbfkweOgFDMngfWGjXqDMaFCkLJOYMIoBJwmjm9beolu-sAodE5h6U8Mzo1n8wFaaJ0ZOxcRXapWnRXU7BWaCv5HbSE-spfeiDx7lOGziFto8CLadySPDDZ463tPTtpiM9YiIBqde-dYt8fxlclW33WAyIuWRjkSeYRjcrtjaEoxm3mCrDMoB834_RkmdfiPmtk45hwF0T_sadHc30elMZ8dxYBUjxKQhfu0abqDVxQSV7YVRnMJfmyp7TBnQ-D4EnW-ZhkF60nI1mdZRzZlQknu9783gUBUDGZl4wNMSt4_GT8ecTz--VPaS7uyPqfm9XkQEVRl68MbZzc3kZ67wdx9YEVoJm6S_TzhKsr2PDl3W8YO0EyvlMBYIIfkweuK7YivG3WDP4YDqBw2qbYcdsStAtQKR4gyDPrQ8SSPzSDOY8iLpBcZHpm7m_z8wrtpq-i0wVVpT1PgFU4Yemz2Qvw8tvNGw7pphdTWcCdoIXx6H5xbZsvNjdgk1ugVgVUS_?></g></svg>