<svg xmlns="http://www.w3.org/2000/svg" xmlns:xlink="http://www.w3.org/1999/xlink" contentStyleType="text/css" data-diagram-type="DESCRIPTION" height="391px" preserveAspectRatio="none" style="width:3513px;height:391px;background:#FFFFFF;" version="1.1" viewBox="0 0 3513 391" width="3513px" zoomAndPan="magnify"><?plantuml 1.2026.3beta5?><defs/><g><g class="title" data-source-line="1"><text fill="#000000" font-family="sans-serif" font-size="14" font-weight="700" lengthAdjust="spacing" textLength="551.2568" x="1477.3716" y="22.9951">Diagrama de Navegaci&#243;n - Sistema de Gesti&#243;n de Turnos e Incidentes</text></g><!--cluster Docentes--><g class="cluster" data-qualified-name="Docentes" data-source-line="15" id="ent0003"><rect fill="#F9FAFB" height="233.19" rx="6" ry="6" style="stroke:#1F2937;stroke-width:1;" width="534" x="7" y="143.8869"/><text fill="#111827" font-family="sans-serif" font-size="14" font-weight="700" lengthAdjust="spacing" textLength="73.5205" x="237.2397" y="158.882">Docentes</text></g><!--cluster Zonas--><g class="cluster" data-qualified-name="Zonas" data-source-line="21" id="ent0007"><rect fill="#F9FAFB" height="233.19" rx="6" ry="6" style="stroke:#1F2937;stroke-width:1;" width="534" x="565" y="143.8869"/><text fill="#111827" font-family="sans-serif" font-size="14" font-weight="700" lengthAdjust="spacing" textLength="47.5166" x="808.2417" y="158.882">Zonas</text></g><!--cluster Turnos--><g class="cluster" data-qualified-name="Turnos" data-source-line="27" id="ent0011"><rect fill="#F9FAFB" height="233.19" rx="6" ry="6" style="stroke:#1F2937;stroke-width:1;" width="812" x="1140" y="143.8869"/><text fill="#111827" font-family="sans-serif" font-size="14" font-weight="700" lengthAdjust="spacing" textLength="54.3389" x="1518.8306" y="158.882">Turnos</text></g><!--cluster Incidentes--><g class="cluster" data-qualified-name="Incidentes" data-source-line="34" id="ent0016"><rect fill="#F9FAFB" height="233.19" rx="6" ry="6" style="stroke:#1F2937;stroke-width:1;" width="552" x="1976" y="143.8869"/><text fill="#111827" font-family="sans-serif" font-size="14" font-weight="700" lengthAdjust="spacing" textLength="82.2773" x="2210.8613" y="158.882">Incidentes</text></g><!--cluster Reemplazos--><g class="cluster" data-qualified-name="Reemplazos" data-source-line="40" id="ent0020"><rect fill="#F9FAFB" height="233.19" rx="6" ry="6" style="stroke:#1F2937;stroke-width:1;" width="568" x="2552" y="143.8869"/><text fill="#111827" font-family="sans-serif" font-size="14" font-weight="700" lengthAdjust="spacing" textLength="94.7256" x="2788.6372" y="158.882">Reemplazos</text></g><!--cluster Reportes--><g class="cluster" data-qualified-name="Reportes" data-source-line="46" id="ent0024"><rect fill="#F9FAFB" height="233.19" rx="6" ry="6" style="stroke:#1F2937;stroke-width:1;" width="355" x="3144" y="143.8869"/><text fill="#111827" font-family="sans-serif" font-size="14" font-weight="700" lengthAdjust="spacing" textLength="71.3398" x="3285.8301" y="158.882">Reportes</text></g><!--entity DocList--><g class="entity" data-qualified-name="Docentes.DocList" data-source-line="16" id="ent0004"><rect fill="#F9FAFB" height="52.5938" rx="6" ry="6" style="stroke:#1F2937;stroke-width:0.5;" width="140.8799" x="257.56" y="178.8869"/><text fill="#111827" font-family="sans-serif" font-size="14" lengthAdjust="spacing" textLength="120.8799" x="267.56" y="201.882">Listado Docentes</text><text fill="#111827" font-family="sans-serif" font-size="14" lengthAdjust="spacing" textLength="94.0283" x="280.9858" y="218.1789">/docentes/list</text></g><!--entity DocForm--><g class="entity" data-qualified-name="Docentes.DocForm" data-source-line="17" id="ent0005"><rect fill="#F9FAFB" height="52.5938" rx="6" ry="6" style="stroke:#1F2937;stroke-width:0.5;" width="158.6465" x="58.68" y="308.4869"/><text fill="#111827" font-family="sans-serif" font-size="14" lengthAdjust="spacing" textLength="138.6465" x="68.68" y="331.482">Formulario Docente</text><text fill="#111827" font-family="sans-serif" font-size="14" lengthAdjust="spacing" textLength="106.3535" x="84.8265" y="347.7789">/docentes/form</text></g><!--entity DocDetail--><g class="entity" data-qualified-name="Docentes.DocDetail" data-source-line="18" id="ent0006"><rect fill="#F9FAFB" height="52.5938" rx="6" ry="6" style="stroke:#1F2937;stroke-width:0.5;" width="132.9365" x="347.53" y="308.4869"/><text fill="#111827" font-family="sans-serif" font-size="14" lengthAdjust="spacing" textLength="112.9365" x="357.53" y="331.482">Detalle Docente</text><text fill="#111827" font-family="sans-serif" font-size="14" lengthAdjust="spacing" textLength="112.8135" x="357.5915" y="347.7789">/docentes/detail</text></g><!--entity ZonaList--><g class="entity" data-qualified-name="Zonas.ZonaList" data-source-line="22" id="ent0008"><rect fill="#F9FAFB" height="52.5938" rx="6" ry="6" style="stroke:#1F2937;stroke-width:0.5;" width="117.8564" x="828.07" y="178.8869"/><text fill="#111827" font-family="sans-serif" font-size="14" lengthAdjust="spacing" textLength="97.8564" x="838.07" y="201.882">Listado Zonas</text><text fill="#111827" font-family="sans-serif" font-size="14" lengthAdjust="spacing" textLength="70.6563" x="851.6701" y="218.1789">/zonas/list</text></g><!--entity ZonaForm--><g class="entity" data-qualified-name="Zonas.ZonaForm" data-source-line="23" id="ent0009"><rect fill="#F9FAFB" height="52.5938" rx="6" ry="6" style="stroke:#1F2937;stroke-width:0.5;" width="135.623" x="628.19" y="308.4869"/><text fill="#111827" font-family="sans-serif" font-size="14" lengthAdjust="spacing" textLength="115.623" x="638.19" y="331.482">Formulario Zona</text><text fill="#111827" font-family="sans-serif" font-size="14" lengthAdjust="spacing" textLength="82.9814" x="654.5108" y="347.7789">/zonas/form</text></g><!--entity ZonaDetail--><g class="entity" data-qualified-name="Zonas.ZonaDetail" data-source-line="24" id="ent0010"><rect fill="#F9FAFB" height="52.5938" rx="6" ry="6" style="stroke:#1F2937;stroke-width:0.5;" width="109.9131" x="923.04" y="308.4869"/><text fill="#111827" font-family="sans-serif" font-size="14" lengthAdjust="spacing" textLength="89.9131" x="933.04" y="331.482">Detalle Zona</text><text fill="#111827" font-family="sans-serif" font-size="14" lengthAdjust="spacing" textLength="89.4414" x="933.2758" y="347.7789">/zonas/detail</text></g><!--entity TurnoList--><g class="entity" data-qualified-name="Turnos.TurnoList" data-source-line="28" id="ent0012"><rect fill="#F9FAFB" height="52.5938" rx="6" ry="6" style="stroke:#1F2937;stroke-width:0.5;" width="122.8672" x="1560.57" y="178.8869"/><text fill="#111827" font-family="sans-serif" font-size="14" lengthAdjust="spacing" textLength="102.8672" x="1570.57" y="201.882">Listado Turnos</text><text fill="#111827" font-family="sans-serif" font-size="14" lengthAdjust="spacing" textLength="74.8467" x="1584.5803" y="218.1789">/turnos/list</text></g><!--entity TurnoForm--><g class="entity" data-qualified-name="Turnos.TurnoForm" data-source-line="29" id="ent0013"><rect fill="#F9FAFB" height="52.5938" rx="6" ry="6" style="stroke:#1F2937;stroke-width:0.5;" width="140.6338" x="1742.68" y="308.4869"/><text fill="#111827" font-family="sans-serif" font-size="14" lengthAdjust="spacing" textLength="120.6338" x="1752.68" y="331.482">Formulario Turno</text><text fill="#111827" font-family="sans-serif" font-size="14" lengthAdjust="spacing" textLength="87.1719" x="1769.411" y="347.7789">/turnos/form</text></g><!--entity TurnoDetail--><g class="entity" data-qualified-name="Turnos.TurnoDetail" data-source-line="30" id="ent0014"><rect fill="#F9FAFB" height="52.5938" rx="6" ry="6" style="stroke:#1F2937;stroke-width:0.5;" width="114.9238" x="1467.54" y="308.4869"/><text fill="#111827" font-family="sans-serif" font-size="14" lengthAdjust="spacing" textLength="94.9238" x="1477.54" y="331.482">Detalle Turno</text><text fill="#111827" font-family="sans-serif" font-size="14" lengthAdjust="spacing" textLength="93.6318" x="1478.186" y="347.7789">/turnos/detail</text></g><!--entity TurnoCal--><g class="entity" data-qualified-name="Turnos.TurnoCal" data-source-line="31" id="ent0015"><rect fill="#F9FAFB" height="52.5938" rx="6" ry="6" style="stroke:#1F2937;stroke-width:0.5;" width="169.7207" x="1156.14" y="308.4869"/><text fill="#111827" font-family="sans-serif" font-size="14" lengthAdjust="spacing" textLength="149.7207" x="1166.14" y="331.482">Calendario de Turnos</text><text fill="#111827" font-family="sans-serif" font-size="14" lengthAdjust="spacing" textLength="127.6133" x="1177.1937" y="347.7789">/turnos/calendario</text></g><!--entity IncList--><g class="entity" data-qualified-name="Incidentes.IncList" data-source-line="35" id="ent0017"><rect fill="#F9FAFB" height="52.5938" rx="6" ry="6" style="stroke:#1F2937;stroke-width:0.5;" width="147.3125" x="2152.34" y="178.8869"/><text fill="#111827" font-family="sans-serif" font-size="14" lengthAdjust="spacing" textLength="127.3125" x="2162.34" y="201.882">Listado Incidentes</text><text fill="#111827" font-family="sans-serif" font-size="14" lengthAdjust="spacing" textLength="102.1152" x="2174.9386" y="218.1789">/incidentes/list</text></g><!--entity IncForm--><g class="entity" data-qualified-name="Incidentes.IncForm" data-source-line="36" id="ent0018"><rect fill="#F9FAFB" height="52.5938" rx="6" ry="6" style="stroke:#1F2937;stroke-width:0.5;" width="165.0791" x="2093.46" y="308.4869"/><text fill="#111827" font-family="sans-serif" font-size="14" lengthAdjust="spacing" textLength="145.0791" x="2103.46" y="331.482">Formulario Incidente</text><text fill="#111827" font-family="sans-serif" font-size="14" lengthAdjust="spacing" textLength="114.4404" x="2118.7793" y="347.7789">/incidentes/form</text></g><!--entity IncDetail--><g class="entity" data-qualified-name="Incidentes.IncDetail" data-source-line="37" id="ent0019"><rect fill="#F9FAFB" height="52.5938" rx="6" ry="6" style="stroke:#1F2937;stroke-width:0.5;" width="140.9004" x="2332.55" y="308.4869"/><text fill="#111827" font-family="sans-serif" font-size="14" lengthAdjust="spacing" textLength="119.3691" x="2343.3156" y="331.482">Detalle Incidente</text><text fill="#111827" font-family="sans-serif" font-size="14" lengthAdjust="spacing" textLength="120.9004" x="2342.55" y="347.7789">/incidentes/detail</text></g><!--entity ReempList--><g class="entity" data-qualified-name="Reemplazos.ReempList" data-source-line="41" id="ent0021"><rect fill="#F9FAFB" height="52.5938" rx="6" ry="6" style="stroke:#1F2937;stroke-width:0.5;" width="160.1094" x="2712.95" y="178.8869"/><text fill="#111827" font-family="sans-serif" font-size="14" lengthAdjust="spacing" textLength="140.1094" x="2722.95" y="201.882">Listado Reemplazos</text><text fill="#111827" font-family="sans-serif" font-size="14" lengthAdjust="spacing" textLength="111.1797" x="2737.4148" y="218.1789">/reemplazos/list</text></g><!--entity ReempForm--><g class="entity" data-qualified-name="Reemplazos.ReempForm" data-source-line="42" id="ent0022"><rect fill="#F9FAFB" height="52.5938" rx="6" ry="6" style="stroke:#1F2937;stroke-width:0.5;" width="177.876" x="2663.06" y="308.4869"/><text fill="#111827" font-family="sans-serif" font-size="14" lengthAdjust="spacing" textLength="157.876" x="2673.06" y="331.482">Formulario Reemplazo</text><text fill="#111827" font-family="sans-serif" font-size="14" lengthAdjust="spacing" textLength="123.5049" x="2690.2455" y="347.7789">/reemplazos/form</text></g><!--entity ReempSug--><g class="entity" data-qualified-name="Reemplazos.ReempSug" data-source-line="43" id="ent0023"><rect fill="#F9FAFB" height="52.5938" rx="6" ry="6" style="stroke:#1F2937;stroke-width:0.5;" width="210.2236" x="2884.89" y="308.4869"/><text fill="#111827" font-family="sans-serif" font-size="14" lengthAdjust="spacing" textLength="190.2236" x="2894.89" y="331.482">Sugerencias de Reemplazo</text><text fill="#111827" font-family="sans-serif" font-size="14" lengthAdjust="spacing" textLength="174.9863" x="2902.5087" y="347.7789">/reemplazos/sugerencias</text></g><!--entity RepDash--><g class="entity" data-qualified-name="Reportes.RepDash" data-source-line="47" id="ent0025"><rect fill="#F9FAFB" height="52.5938" rx="6" ry="6" style="stroke:#1F2937;stroke-width:0.5;" width="162.7139" x="3159.64" y="178.8869"/><text fill="#111827" font-family="sans-serif" font-size="14" lengthAdjust="spacing" textLength="76.2002" x="3202.8968" y="201.882">Dashboard</text><text fill="#111827" font-family="sans-serif" font-size="14" lengthAdjust="spacing" textLength="142.7139" x="3169.64" y="218.1789">/reportes/dashboard</text></g><!--entity RepHeat--><g class="entity" data-qualified-name="Reportes.RepHeat" data-source-line="48" id="ent0026"><rect fill="#F9FAFB" height="52.5938" rx="6" ry="6" style="stroke:#1F2937;stroke-width:0.5;" width="191.5752" x="3267.21" y="308.4869"/><text fill="#111827" font-family="sans-serif" font-size="14" lengthAdjust="spacing" textLength="101.0898" x="3312.4527" y="331.482">Mapa de Calor</text><text fill="#111827" font-family="sans-serif" font-size="14" lengthAdjust="spacing" textLength="171.5752" x="3277.21" y="347.7789">/reportes/heatmap-table</text></g><!--entity Inicio--><g class="entity" data-qualified-name="Inicio" data-source-line="13" id="ent0002"><rect fill="#F9FAFB" height="52.5938" rx="6" ry="6" style="stroke:#1F2937;stroke-width:0.5;" width="107.6709" x="1944.16" y="44.2969"/><text fill="#111827" font-family="sans-serif" font-size="14" lengthAdjust="spacing" textLength="37.0439" x="1979.4735" y="67.292">Inicio</text><text fill="#111827" font-family="sans-serif" font-size="14" lengthAdjust="spacing" textLength="87.6709" x="1954.16" y="83.5889">/home/index</text></g><!--link Inicio to DocList--><g class="link" data-entity-1="ent0002" data-entity-2="ent0004" data-link-type="dependency" data-source-line="51" id="lnk27"><path d="M1943.7,72.3169 C1716.08,75.6269 837.93,91.0869 565,135.8869 C508.06,145.2369 451.0982,161.7879 404.5182,177.1479" fill="none" id="Inicio-to-DocList" style="stroke:#4B5563;stroke-width:1;"/><polygon fill="#4B5563" points="398.82,179.0269,408.62,180.0072,403.5685,177.461,406.1146,172.4096,398.82,179.0269" style="stroke:#4B5563;stroke-width:1;"/></g><!--link Inicio to ZonaList--><g class="link" data-entity-1="ent0002" data-entity-2="ent0008" data-link-type="dependency" data-source-line="52" id="lnk28"><path d="M1943.84,72.9969 C1776.37,77.6569 1268.49,94.1669 1107,126.8869 C1050.86,138.2669 995.1258,158.4112 951.5258,176.1912" fill="none" id="Inicio-to-ZonaList" style="stroke:#4B5563;stroke-width:1;"/><polygon fill="#4B5563" points="945.97,178.4569,955.8141,178.7623,950.5998,176.5688,952.7933,171.3545,945.97,178.4569" style="stroke:#4B5563;stroke-width:1;"/></g><!--link Inicio to TurnoList--><g class="link" data-entity-1="ent0002" data-entity-2="ent0012" data-link-type="dependency" data-source-line="53" id="lnk29"><path d="M1943.73,90.7269 C1874.79,115.0469 1761.7585,154.9015 1689.4185,180.4115" fill="none" id="Inicio-to-TurnoList" style="stroke:#4B5563;stroke-width:1;"/><polygon fill="#4B5563" points="1683.76,182.4069,1693.578,183.1861,1688.4754,180.744,1690.9174,175.6414,1683.76,182.4069" style="stroke:#4B5563;stroke-width:1;"/></g><!--link Inicio to TurnoCal--><g class="link" data-entity-1="ent0002" data-entity-2="ent0015" data-link-type="dependency" data-source-line="54" id="lnk30"><path d="M1943.8,75.9369 C1857.9,83.5569 1685.59,101.8669 1543,135.8869 C1374.49,176.0969 1274.85,120.6269 1174,261.4869 C1162.15,278.0369 1170.9541,291.2752 1188.9541,304.4952" fill="none" id="Inicio-to-TurnoCal" style="stroke:#4B5563;stroke-width:1;"/><polygon fill="#4B5563" points="1193.79,308.0469,1188.904,299.4955,1189.7601,305.0871,1184.1684,305.9433,1193.79,308.0469" style="stroke:#4B5563;stroke-width:1;"/></g><!--link Inicio to IncList--><g class="link" data-entity-1="ent0002" data-entity-2="ent0017" data-link-type="dependency" data-source-line="55" id="lnk31"><path d="M2042.23,97.3169 C2082.51,120.7369 2136.4735,152.1201 2176.7035,175.5201" fill="none" id="Inicio-to-IncList" style="stroke:#4B5563;stroke-width:1;"/><polygon fill="#4B5563" points="2181.89,178.5369,2176.1215,170.5541,2177.568,176.0229,2172.0992,177.4694,2181.89,178.5369" style="stroke:#4B5563;stroke-width:1;"/></g><!--link Inicio to ReempList--><g class="link" data-entity-1="ent0002" data-entity-2="ent0021" data-link-type="dependency" data-source-line="56" id="lnk32"><path d="M2052.15,75.7969 C2148.46,83.7869 2355.63,103.3669 2528,135.8869 C2590.68,147.7169 2654.7126,164.2978 2706.9526,178.9378" fill="none" id="Inicio-to-ReempList" style="stroke:#4B5563;stroke-width:1;"/><polygon fill="#4B5563" points="2712.73,180.5569,2705.1433,174.2766,2707.9155,179.2076,2702.9845,181.9798,2712.73,180.5569" style="stroke:#4B5563;stroke-width:1;"/></g><!--link Inicio to RepDash--><g class="link" data-entity-1="ent0002" data-entity-2="ent0025" data-link-type="dependency" data-source-line="57" id="lnk33"><path d="M2052.01,71.4669 C2247.33,71.4869 2916.17,76.0469 3120,135.8869 C3150.9,144.9569 3177.4771,159.8347 3200.6171,175.1547" fill="none" id="Inicio-to-RepDash" style="stroke:#4B5563;stroke-width:1;"/><polygon fill="#4B5563" points="3205.62,178.4669,3200.3238,170.1633,3201.4509,175.7067,3195.9075,176.8338,3205.62,178.4669" style="stroke:#4B5563;stroke-width:1;"/></g><!--link Inicio to RepHeat--><g class="link" data-entity-1="ent0002" data-entity-2="ent0026" data-link-type="dependency" data-source-line="58" id="lnk34"><path d="M2052.04,71.8769 C2287.94,73.4069 3221.05,82.7969 3340,135.8869 C3411.63,167.8669 3434.21,188.9169 3464,261.4869 C3472.15,281.3369 3463.8854,293.6583 3444.4054,304.9983" fill="none" id="Inicio-to-RepHeat" style="stroke:#4B5563;stroke-width:1;"/><polygon fill="#4B5563" points="3439.22,308.0169,3449.0105,306.9459,3443.5411,305.5014,3444.9857,300.0321,3439.22,308.0169" style="stroke:#4B5563;stroke-width:1;"/></g><!--link DocList to DocForm--><g class="link" data-entity-1="ent0004" data-entity-2="ent0005" data-link-type="dependency" data-source-line="60" id="lnk35"><path d="M303.18,231.8369 C288.08,246.5869 267.93,264.8369 248,278.4869 C232.04,289.4069 218.9959,296.8624 201.8459,305.3624" fill="none" id="DocList-to-DocForm" style="stroke:#4B5563;stroke-width:1;"/><polygon fill="#4B5563" points="196.47,308.0269,206.3102,307.6141,200.9499,305.8065,202.7576,300.4462,196.47,308.0269" style="stroke:#4B5563;stroke-width:1;"/><text fill="#000000" font-family="sans-serif" font-size="13" lengthAdjust="spacing" textLength="41.6089" x="271" y="274.5538">Nuevo</text></g><!--link DocList to DocForm--><g class="link" data-entity-1="ent0004" data-entity-2="ent0005" data-link-type="dependency" data-source-line="61" id="lnk36"><path d="M257.29,210.5869 C185.08,216.7269 80.1,230.7869 55,261.4869 C40.91,278.7169 51.6815,292.1559 73.2215,305.0459" fill="none" id="DocList-to-DocForm-1" style="stroke:#4B5563;stroke-width:1;"/><polygon fill="#4B5563" points="78.37,308.1269,72.7012,300.073,74.0796,305.5594,68.5932,306.9377,78.37,308.1269" style="stroke:#4B5563;stroke-width:1;"/><text fill="#000000" font-family="sans-serif" font-size="13" lengthAdjust="spacing" textLength="38.4858" x="56" y="274.5538">Editar</text></g><!--link DocForm to DocList--><g class="link" data-entity-1="ent0005" data-entity-2="ent0004" data-link-type="dependency" data-source-line="63" id="lnk38"><path d="M127.49,308.3169 C123.09,293.2669 121.02,274.6469 131,261.4869 C146.5,241.0269 201.3685,227.1294 251.3585,217.9594" fill="none" id="DocForm-to-DocList" style="stroke:#4B5563;stroke-width:1;"/><polygon fill="#4B5563" points="257.26,216.8769,247.686,214.5664,252.3421,217.779,249.1294,222.4351,257.26,216.8769" style="stroke:#4B5563;stroke-width:1;"/><text fill="#000000" font-family="sans-serif" font-size="13" lengthAdjust="spacing" textLength="107.3262" x="132" y="274.5538">Guardar / Volver</text></g><!--link DocList to DocDetail--><g class="link" data-entity-1="ent0004" data-entity-2="ent0006" data-link-type="dependency" data-source-line="62" id="lnk37"><path d="M340.11,231.7069 C347.25,245.9069 356.86,263.6469 367,278.4869 C373.97,288.6769 378.5606,294.6326 386.4206,303.7026" fill="none" id="DocList-to-DocDetail" style="stroke:#4B5563;stroke-width:1;"/><polygon fill="#4B5563" points="390.35,308.2369,387.4788,298.8158,387.0755,304.4583,381.433,304.055,390.35,308.2369" style="stroke:#4B5563;stroke-width:1;"/><text fill="#000000" font-family="sans-serif" font-size="13" lengthAdjust="spacing" textLength="70.9033" x="368" y="274.5538">Ver detalle</text></g><!--link DocDetail to DocList--><g class="link" data-entity-1="ent0006" data-entity-2="ent0004" data-link-type="dependency" data-source-line="64" id="lnk39"><path d="M435.63,308.2869 C445.08,293.9269 452.14,276.0269 443,261.4869 C432.74,245.1669 421.5951,236.1198 404.1951,227.8998" fill="none" id="DocDetail-to-DocList" style="stroke:#4B5563;stroke-width:1;"/><polygon fill="#4B5563" points="398.77,225.3369,405.199,232.7979,403.2909,227.4726,408.6162,225.5645,398.77,225.3369" style="stroke:#4B5563;stroke-width:1;"/><text fill="#000000" font-family="sans-serif" font-size="13" lengthAdjust="spacing" textLength="41.4946" x="448" y="274.5538">Volver</text></g><!--link ZonaList to ZonaForm--><g class="link" data-entity-1="ent0008" data-entity-2="ent0009" data-link-type="dependency" data-source-line="66" id="lnk40"><path d="M861.82,231.8169 C846.52,246.5569 826.11,264.8069 806,278.4869 C789.92,289.4169 776.7459,296.9023 759.5159,305.4423" fill="none" id="ZonaList-to-ZonaForm" style="stroke:#4B5563;stroke-width:1;"/><polygon fill="#4B5563" points="754.14,308.1069,763.9802,307.694,758.6199,305.8864,760.4275,300.5261,754.14,308.1069" style="stroke:#4B5563;stroke-width:1;"/><text fill="#000000" font-family="sans-serif" font-size="13" lengthAdjust="spacing" textLength="41.6216" x="828" y="274.5538">Nueva</text></g><!--link ZonaList to ZonaForm--><g class="link" data-entity-1="ent0008" data-entity-2="ent0009" data-link-type="dependency" data-source-line="67" id="lnk41"><path d="M827.65,209.6069 C755.37,215.1669 639.58,228.9969 613,261.4869 C598.9,278.7169 609.6704,292.1576 631.2104,305.0376" fill="none" id="ZonaList-to-ZonaForm-1" style="stroke:#4B5563;stroke-width:1;"/><polygon fill="#4B5563" points="636.36,308.1169,630.6884,300.065,632.0687,305.5508,626.5828,306.9311,636.36,308.1169" style="stroke:#4B5563;stroke-width:1;"/><text fill="#000000" font-family="sans-serif" font-size="13" lengthAdjust="spacing" textLength="38.4858" x="614" y="274.5538">Editar</text></g><!--link ZonaForm to ZonaList--><g class="link" data-entity-1="ent0009" data-entity-2="ent0008" data-link-type="dependency" data-source-line="69" id="lnk43"><path d="M685.48,308.3169 C681.08,293.2669 679.01,274.6369 689,261.4869 C705.83,239.3069 769.7554,224.6358 821.7554,215.7658" fill="none" id="ZonaForm-to-ZonaList" style="stroke:#4B5563;stroke-width:1;"/><polygon fill="#4B5563" points="827.67,214.7569,818.1256,212.3272,822.7412,215.5976,819.4707,220.2133,827.67,214.7569" style="stroke:#4B5563;stroke-width:1;"/><text fill="#000000" font-family="sans-serif" font-size="13" lengthAdjust="spacing" textLength="107.3262" x="690" y="274.5538">Guardar / Volver</text></g><!--link ZonaList to ZonaDetail--><g class="link" data-entity-1="ent0008" data-entity-2="ent0010" data-link-type="dependency" data-source-line="68" id="lnk42"><path d="M898.37,231.9669 C905.19,246.2469 914.56,263.9869 925,278.4869 C932.46,288.8469 937.5809,294.9212 946.3109,303.8312" fill="none" id="ZonaList-to-ZonaDetail" style="stroke:#4B5563;stroke-width:1;"/><polygon fill="#4B5563" points="950.51,308.1169,947.0684,298.8889,947.0107,304.5455,941.3542,304.4877,950.51,308.1169" style="stroke:#4B5563;stroke-width:1;"/><text fill="#000000" font-family="sans-serif" font-size="13" lengthAdjust="spacing" textLength="70.9033" x="926" y="274.5538">Ver detalle</text></g><!--link ZonaDetail to ZonaList--><g class="link" data-entity-1="ent0010" data-entity-2="ent0008" data-link-type="dependency" data-source-line="70" id="lnk44"><path d="M996.4,308.0069 C1004.29,293.5669 1009.88,275.6569 1001,261.4869 C988.74,241.9069 972.9376,231.2982 951.9776,222.9882" fill="none" id="ZonaDetail-to-ZonaList" style="stroke:#4B5563;stroke-width:1;"/><polygon fill="#4B5563" points="946.4,220.7769,953.2922,227.8123,951.048,222.6197,956.2407,220.3755,946.4,220.7769" style="stroke:#4B5563;stroke-width:1;"/><text fill="#000000" font-family="sans-serif" font-size="13" lengthAdjust="spacing" textLength="41.4946" x="1006" y="274.5538">Volver</text></g><!--link TurnoList to TurnoForm--><g class="link" data-entity-1="ent0012" data-entity-2="ent0013" data-link-type="dependency" data-source-line="72" id="lnk45"><path d="M1683.9,217.8769 C1713.8,226.0369 1748.61,239.5469 1774,261.4869 C1788.25,273.7869 1795.9024,287.0719 1802.1724,302.4319" fill="none" id="TurnoList-to-TurnoForm" style="stroke:#4B5563;stroke-width:1;"/><polygon fill="#4B5563" points="1804.44,307.9869,1804.742,298.1426,1802.5504,303.3577,1797.3353,301.1661,1804.44,307.9869" style="stroke:#4B5563;stroke-width:1;"/><text fill="#000000" font-family="sans-serif" font-size="13" lengthAdjust="spacing" textLength="41.6089" x="1789" y="274.5538">Nuevo</text></g><!--link TurnoList to TurnoForm--><g class="link" data-entity-1="ent0012" data-entity-2="ent0013" data-link-type="dependency" data-source-line="73" id="lnk46"><path d="M1683.69,213.4769 C1740.92,221.6569 1820.03,237.0769 1839,261.4869 C1849.56,275.0669 1846.0497,288.2287 1836.8197,302.9987" fill="none" id="TurnoList-to-TurnoForm-1" style="stroke:#4B5563;stroke-width:1;"/><polygon fill="#4B5563" points="1833.64,308.0869,1841.8016,302.5744,1836.2897,303.8467,1835.0174,298.3348,1833.64,308.0869" style="stroke:#4B5563;stroke-width:1;"/><text fill="#000000" font-family="sans-serif" font-size="13" lengthAdjust="spacing" textLength="38.4858" x="1845" y="274.5538">Editar</text></g><!--link TurnoForm to TurnoList--><g class="link" data-entity-1="ent0013" data-entity-2="ent0012" data-link-type="dependency" data-source-line="76" id="lnk49"><path d="M1742.42,321.1369 C1713.25,312.9869 1680.76,299.7569 1657,278.4869 C1643.18,266.1069 1636.2521,252.7435 1630.8821,237.3135" fill="none" id="TurnoForm-to-TurnoList" style="stroke:#4B5563;stroke-width:1;"/><polygon fill="#4B5563" points="1628.91,231.6469,1628.0904,241.4616,1630.5534,236.3691,1635.6459,238.8321,1628.91,231.6469" style="stroke:#4B5563;stroke-width:1;"/><text fill="#000000" font-family="sans-serif" font-size="13" lengthAdjust="spacing" textLength="107.3262" x="1658" y="274.5538">Guardar / Volver</text></g><!--link TurnoList to TurnoDetail--><g class="link" data-entity-1="ent0012" data-entity-2="ent0014" data-link-type="dependency" data-source-line="74" id="lnk47"><path d="M1560.31,211.2269 C1526.53,217.5069 1487.31,231.3269 1466,261.4869 C1454.69,277.4969 1462.619,290.7019 1479.019,304.2119" fill="none" id="TurnoList-to-TurnoDetail" style="stroke:#4B5563;stroke-width:1;"/><polygon fill="#4B5563" points="1483.65,308.0269,1479.2468,299.2171,1479.7908,304.8478,1474.1602,305.3918,1483.65,308.0269" style="stroke:#4B5563;stroke-width:1;"/><text fill="#000000" font-family="sans-serif" font-size="13" lengthAdjust="spacing" textLength="70.9033" x="1467" y="274.5538">Ver detalle</text></g><!--link TurnoDetail to TurnoList--><g class="link" data-entity-1="ent0014" data-entity-2="ent0012" data-link-type="dependency" data-source-line="77" id="lnk50"><path d="M1543.4,308.1669 C1553.48,294.2569 1566.28,276.8169 1578,261.4869 C1585.45,251.7369 1590.0468,245.856 1597.4468,236.586" fill="none" id="TurnoDetail-to-TurnoList" style="stroke:#4B5563;stroke-width:1;"/><polygon fill="#4B5563" points="1601.19,231.8969,1592.449,236.4351,1598.0706,235.8045,1598.7013,241.4261,1601.19,231.8969" style="stroke:#4B5563;stroke-width:1;"/><text fill="#000000" font-family="sans-serif" font-size="13" lengthAdjust="spacing" textLength="41.4946" x="1579" y="274.5538">Volver</text></g><!--link TurnoList to TurnoCal--><g class="link" data-entity-1="ent0012" data-entity-2="ent0015" data-link-type="dependency" data-source-line="75" id="lnk48"><path d="M1560.49,209.5869 C1446.6,216.5169 1212.22,233.9769 1188,261.4869 C1175.04,276.1969 1183.1744,289.9846 1199.3444,304.2046" fill="none" id="TurnoList-to-TurnoCal" style="stroke:#4B5563;stroke-width:1;"/><polygon fill="#4B5563" points="1203.85,308.1669,1199.7331,299.2197,1200.0953,304.865,1194.4501,305.2272,1203.85,308.1669" style="stroke:#4B5563;stroke-width:1;"/><text fill="#000000" font-family="sans-serif" font-size="13" lengthAdjust="spacing" textLength="94.4595" x="1189" y="274.5538">Ver calendario</text></g><!--link TurnoCal to TurnoList--><g class="link" data-entity-1="ent0015" data-entity-2="ent0012" data-link-type="dependency" data-source-line="78" id="lnk51"><path d="M1272.85,308.1269 C1293.88,292.4269 1322.69,273.1669 1351,261.4869 C1419.58,233.1869 1498.1343,219.6245 1554.3643,212.7545" fill="none" id="TurnoCal-to-TurnoList" style="stroke:#4B5563;stroke-width:1;"/><polygon fill="#4B5563" points="1560.32,212.0269,1550.9013,209.1479,1555.3569,212.6332,1551.8715,217.0888,1560.32,212.0269" style="stroke:#4B5563;stroke-width:1;"/><text fill="#000000" font-family="sans-serif" font-size="13" lengthAdjust="spacing" textLength="100.9912" x="1352" y="274.5538">Volver a listado</text></g><!--link IncList to IncForm--><g class="link" data-entity-1="ent0017" data-entity-2="ent0018" data-link-type="dependency" data-source-line="80" id="lnk52"><path d="M2193.67,231.7769 C2185.34,240.2469 2177.46,250.3769 2173,261.4869 C2167.1,276.1669 2166.8255,287.9854 2168.9955,302.2154" fill="none" id="IncList-to-IncForm" style="stroke:#4B5563;stroke-width:1;"/><polygon fill="#4B5563" points="2169.9,308.1469,2172.4975,298.6467,2169.1462,303.204,2164.5889,299.8527,2169.9,308.1469" style="stroke:#4B5563;stroke-width:1;"/><text fill="#000000" font-family="sans-serif" font-size="13" lengthAdjust="spacing" textLength="59.4204" x="2174" y="274.5538">Registrar</text></g><!--link IncList to IncForm--><g class="link" data-entity-1="ent0017" data-entity-2="ent0018" data-link-type="dependency" data-source-line="81" id="lnk53"><path d="M2237.21,231.8669 C2241.75,246.1069 2244.56,263.8569 2238,278.4869 C2232.93,289.8069 2228.7569,295.7734 2219.4869,304.0034" fill="none" id="IncList-to-IncForm-1" style="stroke:#4B5563;stroke-width:1;"/><polygon fill="#4B5563" points="2215,307.9869,2224.3859,305.0029,2218.739,304.6673,2219.0746,299.0204,2215,307.9869" style="stroke:#4B5563;stroke-width:1;"/><text fill="#000000" font-family="sans-serif" font-size="13" lengthAdjust="spacing" textLength="38.4858" x="2242" y="274.5538">Editar</text></g><!--link IncForm to IncList--><g class="link" data-entity-1="ent0018" data-entity-2="ent0017" data-link-type="dependency" data-source-line="83" id="lnk55"><path d="M2093.25,314.6869 C2060.49,303.0169 2034.35,285.6169 2052,261.4869 C2074.92,230.1469 2109.8325,217.1283 2146.1825,211.0383" fill="none" id="IncForm-to-IncList" style="stroke:#4B5563;stroke-width:1;"/><polygon fill="#4B5563" points="2152.1,210.0469,2142.5628,207.589,2147.1687,210.873,2143.8847,215.479,2152.1,210.0469" style="stroke:#4B5563;stroke-width:1;"/><text fill="#000000" font-family="sans-serif" font-size="13" lengthAdjust="spacing" textLength="107.3262" x="2053" y="274.5538">Guardar / Volver</text></g><!--link IncList to IncDetail--><g class="link" data-entity-1="ent0017" data-entity-2="ent0019" data-link-type="dependency" data-source-line="82" id="lnk54"><path d="M2261.39,231.6969 C2292.16,253.8769 2331.6529,282.3481 2362.5029,304.5881" fill="none" id="IncList-to-IncDetail" style="stroke:#4B5563;stroke-width:1;"/><polygon fill="#4B5563" points="2367.37,308.0969,2362.4085,299.589,2363.3141,305.1729,2357.7302,306.0785,2367.37,308.0969" style="stroke:#4B5563;stroke-width:1;"/><text fill="#000000" font-family="sans-serif" font-size="13" lengthAdjust="spacing" textLength="70.9033" x="2326" y="274.5538">Ver detalle</text></g><!--link IncDetail to IncList--><g class="link" data-entity-1="ent0019" data-entity-2="ent0017" data-link-type="dependency" data-source-line="84" id="lnk56"><path d="M2411.02,308.0269 C2414.02,293.0569 2414.69,274.6169 2405,261.4869 C2380.96,228.8969 2343.9019,215.8285 2306.0719,210.0785" fill="none" id="IncDetail-to-IncList" style="stroke:#4B5563;stroke-width:1;"/><polygon fill="#4B5563" points="2300.14,209.1769,2308.4367,214.4839,2305.0832,209.9282,2309.6389,206.5747,2300.14,209.1769" style="stroke:#4B5563;stroke-width:1;"/><text fill="#000000" font-family="sans-serif" font-size="13" lengthAdjust="spacing" textLength="41.4946" x="2412" y="274.5538">Volver</text></g><!--link ReempList to ReempForm--><g class="link" data-entity-1="ent0021" data-entity-2="ent0022" data-link-type="dependency" data-source-line="86" id="lnk57"><path d="M2766.78,231.7869 C2759.6,240.4669 2752.76,250.7069 2749,261.4869 C2743.82,276.3069 2743.5945,287.9539 2745.5545,302.0639" fill="none" id="ReempList-to-ReempForm" style="stroke:#4B5563;stroke-width:1;"/><polygon fill="#4B5563" points="2746.38,308.0069,2749.1037,298.5421,2745.6921,303.0544,2741.1798,299.6428,2746.38,308.0069" style="stroke:#4B5563;stroke-width:1;"/><text fill="#000000" font-family="sans-serif" font-size="13" lengthAdjust="spacing" textLength="41.6089" x="2750" y="274.5538">Nuevo</text></g><!--link ReempList to ReempForm--><g class="link" data-entity-1="ent0021" data-entity-2="ent0022" data-link-type="dependency" data-source-line="87" id="lnk58"><path d="M2798.62,231.9569 C2800.58,246.0769 2801.18,263.6569 2796,278.4869 C2792.24,289.2569 2789.2243,294.8736 2782.0443,303.5536" fill="none" id="ReempList-to-ReempForm-1" style="stroke:#4B5563;stroke-width:1;"/><polygon fill="#4B5563" points="2778.22,308.1769,2787.0387,303.7915,2781.4069,304.3242,2780.8743,298.6924,2778.22,308.1769" style="stroke:#4B5563;stroke-width:1;"/><text fill="#000000" font-family="sans-serif" font-size="13" lengthAdjust="spacing" textLength="38.4858" x="2800" y="274.5538">Editar</text></g><!--link ReempForm to ReempList--><g class="link" data-entity-1="ent0022" data-entity-2="ent0021" data-link-type="dependency" data-source-line="89" id="lnk60"><path d="M2662.57,312.2369 C2633.2,300.6569 2611.77,284.0369 2628,261.4869 C2647.5,234.3869 2675.0581,221.7017 2706.7281,214.5317" fill="none" id="ReempForm-to-ReempList" style="stroke:#4B5563;stroke-width:1;"/><polygon fill="#4B5563" points="2712.58,213.2069,2702.9189,211.2929,2707.7034,214.3109,2704.6854,219.0954,2712.58,213.2069" style="stroke:#4B5563;stroke-width:1;"/><text fill="#000000" font-family="sans-serif" font-size="13" lengthAdjust="spacing" textLength="107.3262" x="2629" y="274.5538">Guardar / Volver</text></g><!--link ReempList to ReempSug--><g class="link" data-entity-1="ent0021" data-entity-2="ent0023" data-link-type="dependency" data-source-line="88" id="lnk59"><path d="M2832.39,231.6969 C2866.64,253.8769 2910.9744,282.5946 2945.3044,304.8346" fill="none" id="ReempList-to-ReempSug" style="stroke:#4B5563;stroke-width:1;"/><polygon fill="#4B5563" points="2950.34,308.0969,2944.9614,299.8464,2946.1436,305.3783,2940.6117,306.5606,2950.34,308.0969" style="stroke:#4B5563;stroke-width:1;"/><text fill="#000000" font-family="sans-serif" font-size="13" lengthAdjust="spacing" textLength="104.7109" x="2904" y="274.5538">Ver sugerencias</text></g><!--link ReempSug to ReempList--><g class="link" data-entity-1="ent0023" data-entity-2="ent0021" data-link-type="dependency" data-source-line="90" id="lnk61"><path d="M3011.21,308.1069 C3020.72,293.3469 3027.66,275.0869 3017,261.4869 C2999.16,238.6969 2936.0243,224.9021 2879.2443,216.4321" fill="none" id="ReempSug-to-ReempList" style="stroke:#4B5563;stroke-width:1;"/><polygon fill="#4B5563" points="2873.31,215.5469,2881.6213,220.831,2878.2553,216.2846,2882.8017,212.9185,2873.31,215.5469" style="stroke:#4B5563;stroke-width:1;"/><text fill="#000000" font-family="sans-serif" font-size="13" lengthAdjust="spacing" textLength="41.4946" x="3023" y="274.5538">Volver</text></g><!--link RepDash to RepHeat--><g class="link" data-entity-1="ent0025" data-entity-2="ent0026" data-link-type="dependency" data-source-line="92" id="lnk62"><path d="M3288.06,231.8169 C3300.72,240.1669 3313.74,250.2169 3324,261.4869 C3336.39,275.0869 3343.7261,287.8706 3350.4061,302.6306" fill="none" id="RepDash-to-RepHeat" style="stroke:#4B5563;stroke-width:1;"/><polygon fill="#4B5563" points="3352.88,308.0969,3352.8133,298.2482,3350.8184,303.5417,3345.525,301.5468,3352.88,308.0969" style="stroke:#4B5563;stroke-width:1;"/><text fill="#000000" font-family="sans-serif" font-size="13" lengthAdjust="spacing" textLength="118.7964" x="3337" y="274.5538">Ir a mapa de calor</text></g><!--link RepHeat to RepDash--><g class="link" data-entity-1="ent0026" data-entity-2="ent0025" data-link-type="dependency" data-source-line="93" id="lnk63"><path d="M3266.85,325.4869 C3236.73,317.8169 3206.55,303.7969 3188,278.4869 C3176.69,263.0469 3184.0233,249.764 3199.3333,235.964" fill="none" id="RepHeat-to-RepDash" style="stroke:#4B5563;stroke-width:1;"/><polygon fill="#4B5563" points="3203.79,231.9469,3194.4268,235.0015,3200.0761,235.2945,3199.783,240.9438,3203.79,231.9469" style="stroke:#4B5563;stroke-width:1;"/><text fill="#000000" font-family="sans-serif" font-size="13" lengthAdjust="spacing" textLength="126.7246" x="3189" y="274.5538">Volver a dashboard</text></g><?plantuml-src VLNBRjim4BppAmZdR1XschRfeK0Srsc0DeSaoA7eXP4OcGX56XILf2dwLVs4_bYN59yAvPEbdPdLx2wvranpYZUCD8gq1DSKNv4dsf2A_Vihy1pVi4xJ0RYWdRPHUBxjbP0TflXILAocGjCEeUwHYJs1FFYUL8-DahsepoMN2Z_lcAO9lWUSDFH6_uAFArff8XgU4heTgUKp4mr-8BnB4PkraafGXPUh1AZf0-cvlgKl-eopHhJW2bV6cafOPqh9vy7KqRlroSdxumIyzaxMKjLKETfokpez_b2YRQNGdhHSVbmLIUjHBuwsfzkpxHgXK3UUNGfMCVbJB7QofGicQleomwJ3GnmXroyysqXRKJV3ln76IOPlC2Te6VO4o5MxnmK7pAO3qF1ovLQgjkT4iI1EjG-0UgrXvjeDrOIRy_DMM0F4k9Tkx1lwavJoGmeoNOT58T-h-OqLcF314WmXo89v4vrsdsaItoPUC3wS_Kdd0mpvj7s8tYrmqBnbH6MmR-FJ_aUof0ABk18owJdXLDJse-4snmnLG6CMK6HTY1T_iXEH0gbPU8aT0SB1VeG4kJxq1V3fhao8a-u0ep3UQqhRFIUl1qOSAP1RXPTOc2KSB2sao3E4qYp-jhYRlg6AGZL0WS5DPEaYAoO3wQZElLIbyMr8jxkNHDKswK1Qr3xe4kuDAzTz9tlxFm4dHQfKkwD4jsG_r-IUKw__2a7ZPrXnU3x_7DPJ4WhtFOd5UpGEcZEQnFpnIa9nC5bmg2OFMOF8UVB-p4Jm9tpLqoSvWNsfcIPg30u73U0x-D-gXoEAl2Wf7XWNFRIPABp0Tv8_KPlAoNEYWv5lKkXOuf9Ceixd6xZeDEZIePIy9Xb6LEysZ2_EBUlgDEuS5mX5pmKU7117YYiEnKzafwjKNVgnCJcbcE-KSKmm7xQ8EVhnYBXL1hnhsa1GGQ5bt7LX11Oxu4N9PIXL5UKvqKyiN9fuXRA9JUFEQu40syYPJPOLYjhiifPCXonZPdHjRtLwdG6zD1DetQQgpAP27anMGJgkiFd-0m00?></g></svg>